<svg width="304" height="304" viewBox="0 0 304 304" fill="none" xmlns="http://www.w3.org/2000/svg">
<path fill-rule="evenodd" clip-rule="evenodd" d="M135.658 3.25C135.347 5.037 134.793 10.165 134.427 14.643L133.76 22.787L127.63 23.952C122.383 24.949 107.939 29.08 104.361 30.607C103.735 30.874 100.209 26.842 96.526 21.646L89.83 12.2L75.946 20.206L62.062 28.213L63.426 31.357C64.176 33.085 66.231 37.709 67.992 41.631L71.193 48.763L59.995 59.961L48.797 71.159L44.148 69.147C41.592 68.041 36.955 66.004 33.843 64.622L28.187 62.108L20.161 76.024L12.136 89.94L21.605 96.652C28.587 101.602 30.906 103.776 30.434 104.932C28.019 110.851 25.863 118.207 24.434 125.4L22.773 133.764L15.637 134.413C11.711 134.77 6.588 135.324 4.25 135.645L0 136.227V152.002V167.777L3.25 168.342C5.037 168.653 10.144 169.205 14.599 169.569L22.697 170.232L23.907 176.797C24.572 180.407 26.383 187.299 27.93 192.112L30.745 200.864L21.491 207.533L12.237 214.202L20.225 228.149C24.619 235.819 28.55 241.962 28.962 241.798C29.374 241.634 34.004 239.543 39.251 237.151L48.791 232.802L59.956 244.045L71.122 255.288L69.129 259.894C68.032 262.427 65.998 267.06 64.607 270.189L62.079 275.878L73.79 282.592C80.23 286.284 86.438 289.914 87.585 290.659C89.548 291.935 90.064 291.466 96.424 282.641L103.179 273.269L111.909 276.076C116.71 277.62 123.593 279.428 127.203 280.093L133.768 281.303L134.431 289.401C134.795 293.856 135.347 298.963 135.658 300.75L136.223 304H152H167.777L168.342 300.75C168.653 298.962 169.205 293.856 169.569 289.401L170.232 281.303L176.797 280.093C180.407 279.428 187.29 277.62 192.091 276.076L200.821 273.269L207.576 282.641C213.936 291.466 214.452 291.935 216.415 290.659C217.562 289.914 223.77 286.284 230.21 282.592L241.921 275.878L239.393 270.189C238.002 267.06 235.968 262.427 234.871 259.894L232.878 255.288L244.073 244.015L255.269 232.742L264.385 236.953C269.398 239.269 274.011 241.381 274.635 241.645C275.279 241.918 279.233 236.079 283.778 228.143L291.787 214.161L282.5 207.578L273.213 200.995L276.049 192.178C277.608 187.329 279.428 180.407 280.093 176.797L281.303 170.232L289.401 169.569C293.856 169.205 298.962 168.653 300.75 168.342L304 167.777V152.002V136.227L299.75 135.645C297.413 135.324 292.289 134.77 288.363 134.413L281.227 133.764L279.566 125.4C278.137 118.207 275.981 110.851 273.566 104.932C273.094 103.776 275.411 101.603 282.389 96.657L291.852 89.949L283.884 76.224C279.503 68.676 275.373 62.647 274.709 62.827C274.044 63.007 269.389 64.961 264.365 67.169L255.229 71.185L243.998 59.953L232.766 48.721L236.847 39.611C239.091 34.6 241.056 29.956 241.214 29.291C241.371 28.627 235.349 24.512 227.831 20.147L214.162 12.212L207.47 21.652C203.789 26.845 200.265 30.874 199.639 30.607C196.061 29.08 181.617 24.949 176.37 23.952L170.24 22.787L169.573 14.643C169.207 10.165 168.653 5.037 168.342 3.25L167.777 0H152H136.223L135.658 3.25Z" fill="#E33C3C"/>
</svg>
