<svg width="304" height="304" viewBox="0 0 304 304" fill="none" xmlns="http://www.w3.org/2000/svg">
<path d="M154.84 65.7596C215.3 113.158 216.515 148.109 198.211 166.179L217.191 185.158C245.105 150.853 242.681 91.0477 154.84 65.7589V65.7596ZM141.907 73.1484C136.206 74.8015 130.082 75.5583 124.645 75.4505C119.978 75.3585 115.877 74.9594 112.73 73.2643L74.2854 111.709L93.095 130.52L146.187 77.4294L141.907 73.1484ZM127.824 104.475L112.872 119.427L217.828 224.382C218.853 225.408 220.024 225.581 222.12 224.943C224.216 224.306 226.799 222.646 228.922 220.524C231.044 218.402 232.703 215.818 233.341 213.722C233.978 211.626 233.806 210.455 232.781 209.431L127.824 104.475L127.824 104.475ZM124.869 165.776L110.97 178.437L128.301 195.609C148.678 212.595 171.359 213.766 190.386 205.622L164.713 179.949C149.795 180.875 134.479 176.381 124.869 165.776L124.869 165.776ZM104.768 181.421C102.884 181.785 101.706 182.43 100.909 183.212C100.241 183.868 99.8003 184.766 99.4592 185.792L118.282 203.815C120.147 203.472 121.441 202.862 122.129 202.216C122.81 201.578 123.185 200.899 123.185 199.648L104.768 181.422L104.768 181.421ZM96.3368 191.76L77.3652 209.048C71.6568 218.256 82.3768 229.921 94.7915 224.279L112.366 207.131L96.3365 191.761V191.76H96.3368Z" fill="#EEDFC1"/>
</svg>
